<?xml version="1.0" encoding="utf-8"?>
<!-- Generator: Adobe Illustrator 25.2.0, SVG Export Plug-In . SVG Version: 6.00 Build 0)  -->
<svg version="1.1" id="Layer_1" xmlns="http://www.w3.org/2000/svg" xmlns:xlink="http://www.w3.org/1999/xlink" x="0px" y="0px"
	 viewBox="0 0 512 512" style="enable-background:new 0 0 512 512;" xml:space="preserve">
<style type="text/css">
	.st0{fill:#837790;}
</style>
<g transform="translate(0.000000,512.000000) scale(0.100000,-0.100000)">
	<path class="st0" d="M3752,4300c-18-11-41-34-52-52c-19-31-20-51-20-300v-268h-747c-729,0-749-1-781-20c-18-11-41-34-52-52
		c-19-31-20-51-20-408s1-377,20-408c11-18,34-41,52-52c32-19,52-20,781-20h747v-267c0-250,1-270,20-301c29-48,75-72,138-72
		c29,0,63,5,75,11c31,16,1015,998,1033,1031c8,15,14,50,14,78s-6,63-14,78c-18,33-1002,1015-1033,1031
		C3877,4327,3789,4322,3752,4300z"/>
	<path class="st0" d="M1205,3029c-31-17-1015-1001-1031-1031c-18-35-18-121,0-156c18-33,1002-1015,1033-1031c12-6,46-11,75-11
		c63,0,109,24,138,72c19,31,20,51,20,301v267h748c728,0,748,1,780,20c18,11,41,34,52,52c19,31,20,51,20,408s-1,377-20,408
		c-11,18-34,41-52,52c-32,19-52,20-780,20h-748v268c0,249-1,269-20,300c-30,49-75,72-140,72C1250,3040,1216,3035,1205,3029z"/>
</g>
</svg>
