<?xml version="1.0" encoding="utf-8"?>
<!-- Generator: Adobe Illustrator 25.2.0, SVG Export Plug-In . SVG Version: 6.00 Build 0)  -->
<svg version="1.1" id="Layer_1" xmlns="http://www.w3.org/2000/svg" xmlns:xlink="http://www.w3.org/1999/xlink" x="0px" y="0px"
	 viewBox="0 0 512 512" style="enable-background:new 0 0 512 512;" xml:space="preserve">
<style type="text/css">
	.st0{fill:#837790;}
</style>
<g transform="translate(0.000000,512.000000) scale(0.100000,-0.100000)">
	<path class="st0" d="M73,5033c-12-2-34-18-48-34l-25-31V2559V150l29-32l29-33l1582-3c1094-1,1594,1,1621,8c28,8,46,21,59,43
		c18,29,20,52,20,261v228l-34,34l-34,34H1941H610v1870v1870h1331h1331l34,34l34,34v228c0,209-2,232-20,261c-13,21-31,35-57,42
		C3226,5040,125,5043,73,5033z"/>
	<path class="st0" d="M3545,4080c-11-4-102-91-203-192c-188-189-206-215-191-273c6-20,114-135,336-357l328-328H2410
		c-1561,0-1436,6-1466-66c-20-48-20-560,0-608c30-72-95-66,1466-66h1405l-328-328c-222-222-330-337-335-357c-17-59,0-83,201-283
		c182-181,195-192,231-192c20,0,49,6,64,14s352,340,750,738l722,724v54v54l-722,724c-398,398-735,730-750,738
		C3618,4091,3576,4093,3545,4080z"/>
</g>
</svg>
