<?xml version="1.0" encoding="utf-8"?>
<!-- Generator: Adobe Illustrator 25.2.0, SVG Export Plug-In . SVG Version: 6.00 Build 0)  -->
<svg version="1.1" id="Layer_1" xmlns="http://www.w3.org/2000/svg" xmlns:xlink="http://www.w3.org/1999/xlink" x="0px" y="0px"
	 viewBox="0 0 512 512" style="enable-background:new 0 0 512 512;" xml:space="preserve">
<style type="text/css">
	.st0{fill:#837790;}
</style>
<g transform="translate(0.000000,512.000000) scale(0.100000,-0.100000)">
	<path class="st0" d="M310,3614c-116-31-220-119-273-232l-32-67v-755v-755l32-67c35-75,104-150,173-191c104-61-43-57,2350-57
		s2246-4,2350,57c69,41,138,116,173,191l32,67v755v755l-32,67c-35,75-104,150-173,191c-104,61,44,57-2355,56
		C660,3629,358,3627,310,3614z M4785,3383c50-27,80-58,100-105c13-33,15-126,15-718s-2-685-15-718c-20-47-50-78-100-105l-40-22H2560
		H375l-40,22c-50,27-80,58-100,105c-13,33-15,126-15,718s2,685,15,718c26,60,73,101,145,123c14,4,1001,7,2195,6l2170-2L4785,3383z"
		/>
	<path class="st0" d="M884,2956c-33-33-34-36-34-115c0-45-2-81-5-81c-2,0-34,16-70,36c-55,31-73,36-107,31c-53-7-88-42-94-93
		c-7-55,21-95,95-136c34-18,61-35,61-38s-27-20-61-38c-74-41-102-81-95-137c3-28,14-48,36-67c43-39,87-37,167,7c35,19,66,35,68,35
		c3,0,5-36,5-81c0-79,1-82,34-115c28-28,42-34,76-34s48,6,76,34c33,33,34,36,34,115c0,45,2,81,5,81c2,0,33-16,68-35
		c80-44,124-46,167-7c22,19,33,39,36,67c7,56-21,96-95,137c-34,18-61,35-61,38s27,20,61,38c74,41,102,81,95,136c-6,51-41,86-94,93
		c-34,5-52,0-107-31c-36-20-68-36-70-36c-3,0-5,36-5,81c0,79-1,82-34,115c-28,28-42,34-76,34S912,2984,884,2956z"/>
	<path class="st0" d="M1975,2978c-45-24-55-49-55-140v-87l-60,36c-35,21-79,38-105,41c-41,4-47,2-80-31c-28-28-35-43-35-75
		c0-50,24-82,96-124c29-18,54-35,54-38s-25-20-54-38c-72-42-96-74-96-124c0-32,7-47,34-74c48-48,90-46,179,5l67,40v-87
		c0-92,10-117,57-141c53-27,126,0,149,54c8,19,14,64,14,100s2,65,5,65s27-14,55-31c63-38,116-47,158-25c40,21,52,44,52,101
		c0,54-18,76-98,121c-28,16-52,31-52,34s24,18,52,34c80,45,98,67,98,121c0,113-95,147-211,76c-27-17-51-31-54-31s-5,29-5,65
		s-6,81-14,100C2103,2979,2026,3007,1975,2978z"/>
	<path class="st0" d="M3034,2971c-39-24-54-65-54-147c0-35-2-64-5-64s-27,14-54,31c-116,71-211,37-211-76c0-54,18-76,98-121
		c28-16,52-31,52-34s-24-18-52-34c-80-45-98-67-98-121c0-57,12-80,52-101c42-22,95-13,158,25c28,17,52,31,55,31s5-29,5-65
		s6-81,14-100c23-54,96-81,149-54c47,24,57,49,57,141v87l67-40c89-51,131-53,179-5c27,27,34,42,34,74c0,50-24,82-96,124
		c-29,18-54,35-54,38s25,20,54,38c72,42,96,74,96,124c0,32-7,47-35,75c-33,33-39,35-80,31c-26-3-70-20-105-41l-60-36v87
		c0,67-4,92-18,108C3144,2993,3086,3003,3034,2971z"/>
	<path class="st0" d="M4084,2956c-33-33-34-36-34-115c0-45-2-81-5-81c-2,0-34,16-70,36c-55,31-73,36-107,31c-53-7-88-42-94-93
		c-7-55,21-95,95-136c34-18,61-35,61-38s-27-20-61-38c-74-41-102-81-95-137c3-28,14-48,36-67c43-39,87-37,167,7c35,19,66,35,68,35
		c3,0,5-36,5-81c0-79,1-82,34-115c28-28,42-34,76-34s48,6,76,34c33,33,34,36,34,115c0,45,2,81,5,81c2,0,33-16,68-35
		c80-44,124-46,167-7c22,19,33,39,36,67c7,56-21,96-95,137c-34,18-61,35-61,38s27,20,61,38c74,41,102,81,95,136c-6,51-41,86-94,93
		c-34,5-52,0-107-31c-36-20-68-36-70-36c-3,0-5,36-5,81c0,79-1,82-34,115c-28,28-42,34-76,34S4112,2984,4084,2956z"/>
</g>
</svg>
