<?xml version="1.0" encoding="utf-8"?>
<!-- Generator: Adobe Illustrator 25.2.0, SVG Export Plug-In . SVG Version: 6.00 Build 0)  -->
<svg version="1.1" id="Layer_1" xmlns="http://www.w3.org/2000/svg" xmlns:xlink="http://www.w3.org/1999/xlink" x="0px" y="0px"
	 viewBox="0 0 512 512" style="enable-background:new 0 0 512 512;" xml:space="preserve">
<style type="text/css">
	.st0{fill:#837790;}
</style>
<g transform="translate(0.000000,512.000000) scale(0.100000,-0.100000)">
	<path class="st0" d="M31,4981l-31-29v-664c0-613,2-665,18-684c34-43,47-44,406-44h346V1893c0-1113,4-1680,10-1705c6-22,23-46,39-58
		c29-20,33-20,1744-20c1712,0,1714,0,1740,20c15,12,31,38,37,58c6,25,10,592,10,1705v1667h346c359,0,372,1,406,44
		c16,19,18,71,18,684v664l-31,29l-31,29H2560H62L31,4981z M4495,4434c64-30,81-116,32-162c-40-38-71-42-317-42h-239l15-35
		c12-29,14-253,14-1582c0-1543,0-1547-21-1589c-30-63-78-100-161-124c-127-38-148-66-148-197c0-54-6-90-19-118
		c-23-51-89-111-138-124c-58-16-1852-15-1907,1c-25,8-59,31-87,58c-51,51-69,102-69,192c0,112-39,169-122,183c-94,16-156,58-189,130
		c-18,38-19,103-19,1588c0,1329,2,1553,14,1582l15,35H910c-145,0-250,4-267,11c-68,26-96,84-68,143c34,71-129,66,1983,66
		C4272,4450,4465,4448,4495,4434z"/>
	<path class="st0" d="M1254,4196l-34-34l2-1551l3-1551l26-25c16-17,48-31,88-40c79-19,111-36,149-79c39-45,62-121,62-206
		c0-74,24-124,70-147c20-10,228-13,938-13c1013,0,964-3,996,65c10,20,16,60,16,102c0,86,21,151,65,196c37,38,102,72,161,83
		c24,4,51,20,72,40l32,32v1547v1547l-34,34l-34,34H2560H1288L1254,4196z M2617,3870c43-26,53-67,53-217v-123l28-6c15-4,57-22,95-42
		c147-76,257-252,257-410c0-37-6-50-34-78c-27-27-42-34-72-34c-66,1-97,38-108,130c-13,104-86,195-185,228c-19,7-60,12-91,12
		s-72-5-91-12c-97-33-172-124-185-224c-20-160,114-304,282-304c219,0,428-171,473-388c44-211-62-422-262-522c-44-22-85-40-92-40
		c-10,0-14-37-17-160l-3-160l-32-32c-26-26-41-33-73-33s-47,7-73,33l-32,32l-3,160c-3,123-7,160-17,160c-7,0-48,18-92,40
		c-161,81-273,251-273,418c0,107,140,154,192,64c8-15,19-52,22-82c19-144,129-240,276-240c238,0,365,267,210,443
		c-56,63-107,85-221,96c-111,11-187,35-263,86c-166,110-250,321-201,508c22,84,57,148,120,215c53,58,154,121,218,136l27,6v123
		c0,67,5,139,11,160c11,42,56,77,99,77C2574,3890,2599,3881,2617,3870z"/>
</g>
</svg>
